<?xml version="1.0" encoding="UTF-8" standalone="no"?>
<svg
   width="156.63333mm"
   height="156.63333mm"
   viewBox="0 0 156.63333 156.63333"
   version="1.1"
   id="svg8"
   inkscape:version="1.1 (c68e22c387, 2021-05-23)"
   sodipodi:docname="Uccello.svg"
   xmlns:inkscape="http://www.inkscape.org/namespaces/inkscape"
   xmlns:sodipodi="http://sodipodi.sourceforge.net/DTD/sodipodi-0.dtd"
   xmlns:xlink="http://www.w3.org/1999/xlink"
   xmlns="http://www.w3.org/2000/svg"
   xmlns:svg="http://www.w3.org/2000/svg"
   xmlns:rdf="http://www.w3.org/1999/02/22-rdf-syntax-ns#"
   xmlns:cc="http://creativecommons.org/ns#"
   xmlns:dc="http://purl.org/dc/elements/1.1/">
  <defs
     id="defs2">
    <linearGradient
       inkscape:collect="always"
       id="linearGradient15806">
      <stop
         style="stop-color:#3771c8;stop-opacity:1"
         offset="0"
         id="stop15802" />
      <stop
         style="stop-color:#214478;stop-opacity:1"
         offset="0.83458644"
         id="stop16290" />
      <stop
         style="stop-color:#1f1c24;stop-opacity:1"
         offset="0.91481513"
         id="stop17380" />
      <stop
         style="stop-color:#1f1c24;stop-opacity:0"
         offset="1"
         id="stop15804" />
    </linearGradient>
    <radialGradient
       inkscape:collect="always"
       xlink:href="#linearGradient15806"
       id="radialGradient15800"
       cx="105.36686"
       cy="143.2366"
       fx="105.36686"
       fy="143.2366"
       r="71.4375"
       gradientUnits="userSpaceOnUse"
       gradientTransform="matrix(-1.0962959,0,0,-1.0967404,223.0127,302.43502)" />
  </defs>
  <sodipodi:namedview
     id="base"
     pagecolor="#ffffff"
     bordercolor="#666666"
     borderopacity="1.0"
     inkscape:pageopacity="0"
     inkscape:pageshadow="2"
     inkscape:zoom="0.70710678"
     inkscape:cx="490.025"
     inkscape:cy="297.69195"
     inkscape:document-units="mm"
     inkscape:current-layer="layer1"
     inkscape:document-rotation="0"
     showgrid="false"
     inkscape:window-width="1920"
     inkscape:window-height="1027"
     inkscape:window-x="1912"
     inkscape:window-y="-8"
     inkscape:window-maximized="1"
     inkscape:snap-bbox="true"
     inkscape:snap-bbox-midpoints="true"
     inkscape:snap-global="true"
     inkscape:pagecheckerboard="true"
     fit-margin-top="0"
     fit-margin-left="0"
     fit-margin-right="0"
     fit-margin-bottom="0" />
  <metadata
     id="metadata5">
    <rdf:RDF>
      <cc:Work
         rdf:about="">
        <dc:format>image/svg+xml</dc:format>
        <dc:type
           rdf:resource="http://purl.org/dc/dcmitype/StillImage" />
      </cc:Work>
    </rdf:RDF>
  </metadata>
  <g
     inkscape:label="Layer 1"
     inkscape:groupmode="layer"
     id="layer1"
     transform="translate(-29.182777,-67.024979)">
    <circle
       style="display:inline;fill:url(#radialGradient15800);fill-opacity:1;stroke-width:4.99999;stroke-linecap:round;stroke-linejoin:round"
       id="path2366"
       cx="107.49944"
       cy="145.34164"
       r="78.316666"
       inkscape:export-filename="C:\Portfolio\public\images\uccello-new.png"
       inkscape:export-xdpi="115.2"
       inkscape:export-ydpi="115.2" />
    <g
       id="g10934"
       transform="translate(2176.7818,681.58419)"
       inkscape:export-filename="C:\Portfolio\public\images\uccello-new.png"
       inkscape:export-xdpi="115.2"
       inkscape:export-ydpi="115.2">
      <path
         id="path10924"
         style="display:inline;fill:#a0892c;stroke-width:4.99999;stroke-linecap:round;stroke-linejoin:round"
         d="m -2051.5206,-547.59344 c -1.7909,0.0119 -4.2195,0.19476 -6.9184,0.52763 -1.2742,0.15714 -1.5816,0.21341 -2.6903,0.49506 -3.2481,0.82513 -6.8285,1.9585 -9.8495,3.11764 -2.6926,1.03309 -3.8445,1.5566 -5.1459,2.33783 -1.3638,0.82603 -2.7044,1.90693 -4.0143,2.9962 -0.7214,0.57824 -0.9284,0.74617 -1.5735,1.27537 -0.1946,0.15967 -0.752,0.61362 -1.2387,1.00925 -1.0168,0.82651 -1.2026,1.00624 -2.1528,2.08359 -0.2046,0.23191 -0.3845,0.43289 -0.4005,0.44649 -0.1123,0.098 -3.1111,3.64709 -3.822,4.52324 -1.4331,1.76596 -2.2398,2.80651 -3.6468,4.7041 -0.8309,1.12051 -1.4125,1.98242 -2.3761,3.52227 -0.7651,1.22269 -2.4971,3.8114 -3.7274,5.57019 -1.052,1.5036 -3.7704,5.31323 -4.2556,5.96397 -0.171,0.22929 -2.424,3.7782 -3.0939,4.8731 -0.063,0.10298 -0.175,0.28199 -0.248,0.39791 -1.5513,2.4489 -2.9267,4.70164 -3.6566,5.99032 -0.8322,1.46929 -1.0259,1.83282 -1.7183,3.22461 -1.607,3.2298 -2.4989,5.5412 -3.3197,8.60208 -0.235,0.87649 -0.7829,3.47679 -0.7829,3.47679 l 0.03,0.12296 c 6.9179,6.34444 19.4218,12.43306 23.3506,13.55835 0.6137,-0.63201 0.925,-0.75486 1.775,-1.39576 1.1699,1.08614 1.4688,1.36161 2.1409,2.60965 2.8788,0.86632 7.0281,1.81487 10.2295,2.13663 0.7698,-1.08981 3.1821,-4.33527 4.1718,-4.94834 0.056,1.222 0.4688,3.74136 1.23,5.46975 1.4359,0.10405 2.8755,0.0823 4.3263,0.0922 1.0532,-0.016 3.0557,-0.0144 4.8348,-0.17612 1.7,-1.79932 3.0669,-2.90899 5.0343,-5.79869 0.4907,1.12188 0.7319,3.06925 1.1911,5.0183 1.1833,-0.12116 5.8628,-1.03246 8.307,-1.82014 0.3474,-0.97888 0.1753,-0.51283 0.6945,-1.62566 0.6712,0.30363 0.6318,0.22387 1.5246,0.94351 1.672,-0.52251 4.3852,-1.50503 6.059,-2.26799 0.038,-0.10929 0.085,-0.27356 0.088,-0.38397 0.066,-3.94041 -1.6903,-7.22839 -4.9134,-11.63285 -0.463,-0.69384 -1.0055,-1.47378 -2.298,-3.30576 -0.1179,-0.16751 -0.2145,-0.32676 -0.2145,-0.35396 0,-0.0272 0.6524,-0.62701 1.45,-1.33276 1.8018,-1.59409 2.561,-2.292 3.391,-3.11764 1.1527,-1.14651 2.3543,-2.54037 2.6526,-3.07681 0.2942,-0.5289 0.6908,-1.12649 1.1782,-1.77559 0.3828,-0.50983 0.528,-0.66424 0.739,-0.78497 0.1445,-0.0827 0.2661,-0.17063 0.2661,-0.18912 -0.4648,0.0284 -0.6825,0.0343 -1.11,-0.15142 -1.1007,-0.45823 -1.8894,-1.35628 -2.3564,-2.68356 -0.3943,-1.12067 -0.5402,-2.21674 -0.6052,-4.55425 l -0.048,-1.70532 -0.2295,-0.27853 c -0.2608,-0.31686 -0.4217,-0.61809 -0.5157,-0.9648 -0.098,-0.36073 -0.037,-1.32604 0.122,-1.94408 0.1641,-0.63704 0.6127,-1.54651 1.0526,-2.1332 0.4571,-0.60963 1.5531,-1.69259 2.5828,-2.55231 l 0.8558,-0.71466 v -0.57931 c 0,-1.58046 0.2543,-3.18846 0.77,-4.8705 0.2487,-0.81164 0.6076,-1.52315 0.6976,-1.6278 0.043,-0.0498 0.2123,-0.16512 0.3767,-0.25632 0.9263,-0.51369 2.0022,-0.71938 3.1094,-0.28216 0.6471,0.25559 1.9922,1.37232 3.0153,2.48979 0.145,0.15843 0.2685,0.36129 0.2785,0.35086 0.046,-0.0458 0.085,-1.33313 0.1054,-4.85603 0.021,-3.74187 0,-4.52697 -0.1415,-6.46213 -0.042,-0.55298 -0.076,-1.14948 -0.076,-1.32551 0,-1.03775 -0.7602,-5.04201 -1.1255,-5.92934 -0.4614,-1.12024 -1.135,-2.24102 -1.9162,-3.18844 -0.831,-1.0078 -2.1809,-2.22811 -3.4866,-3.15227 -1.3249,-0.93766 -3.5291,-2.12087 -4.4354,-2.38072 -2.0647,-0.59201 -4.978,-1.06953 -7.9623,-1.30482 -0.4417,-0.0349 -0.9678,-0.0499 -1.5648,-0.046 z m -25.7483,29.53258 v 0 c 2.2435,-0.0193 4.5571,0.79063 6.7288,2.42207 2.1329,1.60232 3.3605,3.86808 3.6375,6.7138 0.2752,2.82851 -0.5445,6.20163 -2.1854,8.99015 -2.2205,3.77372 -5.5915,6.26673 -9.172,6.78407 -0.5337,0.0772 -1.7235,0.13587 -2.034,0.10026 -0.096,-0.0111 -0.3834,-0.0445 -0.6398,-0.0744 -0.6043,-0.0704 -1.5173,-0.29485 -2.1265,-0.52247 -1.1021,-0.41169 -2.3886,-1.17303 -3.2385,-1.91614 -1.5335,-1.34098 -2.511,-3.38568 -2.7735,-5.80276 -0.075,-0.69781 -0.064,-2.24425 0.023,-2.99103 0.5463,-4.70969 2.939,-9.26577 6.151,-11.71142 1.7242,-1.31283 3.6491,-1.97508 5.6286,-1.99212 z"
         sodipodi:nodetypes="ssssccssscsssssscsssscccccccccccccccccsssssssccsccssssscsssssscccsssssssscsssssssssccssc" />
      <path
         style="display:inline;fill:#d18b5d;stroke-width:1"
         d="m -2042.3344,-499.16356 c -0.4388,-1.26648 -0.6095,-2.39517 -0.664,-4.88566 l -0.034,-1.53606 0.5635,0.34601 c 0.6641,0.4078 1.1206,0.90163 1.9511,1.4599 0.8337,0.56042 1.9119,1.14498 2.0456,1.18742 0.053,0.0168 0.2972,0.051 0.5427,0.0758 0.6525,0.0661 1.2685,-0.006 1.9032,-0.22287 0.4603,-0.15725 0.565,-0.17619 0.825,-0.14913 0.5831,0.0607 1.1461,0.52778 1.4356,1.11956 0.1308,0.26737 0.073,0.27707 0.086,1.5439 0.01,0.70116 0.023,1.3753 0.036,1.49808 0.013,0.12279 0.014,0.17491 0,0.11582 -0.036,-0.18344 -0.1892,-0.16575 -0.5683,0.0894 -1.5779,0.96169 -3.0666,1.73291 -4.707,2.03403 -1.6662,0.23229 -2.6676,-0.93185 -3.4152,-2.67624 z"
         id="path10926"
         sodipodi:nodetypes="cccssssssscsccccc" />
      <path
         style="display:inline;fill:#786721;stroke-width:1"
         d="m -2031.0511,-531.47721 c -0.097,-1.64865 -0.9467,-5.06253 -1.3363,-6.00859 -0.4614,-1.12024 -1.1119,-2.22969 -1.8931,-3.17711 -0.831,-1.0078 -2.0753,-2.2398 -3.381,-3.16395 -1.3249,-0.93768 -3.4591,-2.09746 -4.3654,-2.35732 -2.0647,-0.59201 -4.8377,-1.03431 -7.822,-1.26962 -1.7668,-0.13932 -4.756,0.0259 -8.3545,0.46976 -1.2742,0.15715 -2.9499,0.57628 -4.0586,0.85793 -3.2481,0.82513 -5.6008,1.64266 -8.6218,2.80179 -2.6926,1.03311 -3.891,1.53292 -5.1925,2.31415 -1.1299,0.6783 -2.6384,1.66425 -2.8993,1.95669 l -0.124,0.13902 -0.025,-0.23545 c -0.01,-0.0994 -0.084,-0.44328 -0.1847,-0.76298 -0.3268,-1.04161 -0.3481,-1.76959 -0.072,-2.46267 0.2207,-0.55393 0.9182,-0.89666 2.1812,-1.07184 0.1309,-0.0181 0.2356,-0.0589 0.2355,-0.0916 0,-0.0324 -0.056,-0.1688 -0.124,-0.30303 -0.1454,-0.28653 -0.1508,-0.40414 -0.045,-0.9815 0.072,-0.3914 0.095,-0.44384 0.2479,-0.56042 0.285,-0.21739 0.9082,-0.48642 1.5582,-0.67261 0.3936,-0.11278 0.6247,-0.20355 0.6328,-0.24859 0.01,-0.0401 -0.1085,-0.14636 -0.2664,-0.24458 -0.4903,-0.30492 -0.7622,-0.74026 -0.8369,-1.33994 -0.034,-0.27304 -0.034,-0.27358 0.181,-0.48708 0.4301,-0.42744 1.1038,-0.75267 1.5591,-0.75267 0.1506,0 0.7898,0.0357 1.4204,0.0794 l 1.1466,0.0794 1.5916,0.60791 c 1.8152,0.69334 2.2535,0.84507 2.3016,0.79675 0.044,-0.044 0,-0.0767 -1.3741,-1.08548 -1.3412,-0.98282 -2.0165,-1.54859 -2.7034,-2.26481 -0.5639,-0.58809 -0.6646,-0.77356 -0.8773,-1.61577 -0.2565,-1.0154 -0.3952,-2.6498 -0.225,-2.6498 0.038,0 0.4457,0.10042 0.9054,0.22315 1.1764,0.31409 1.2772,0.29522 0.7697,-0.1442 -0.2916,-0.25253 -1.6065,-1.43897 -1.7332,-1.56387 -0.1023,-0.10087 -0.059,-2.61841 0.055,-3.21794 0.1263,-0.66227 0.2348,-1.00222 0.3198,-1.00222 0.2378,0 2.2735,0.66444 3.166,1.0334 0.7353,0.30393 3.3795,1.91959 5.9479,3.63422 1.6025,1.06984 1.787,1.20959 3.6959,2.7997 2.0404,1.69971 2.2176,1.84093 2.2585,1.80006 0.045,-0.0446 -0.2693,-0.39955 -2.369,-2.67851 -2.0741,-2.25134 -2.1383,-2.3272 -2.996,-3.53939 -0.9601,-1.35703 -1.221,-1.83325 -1.5599,-2.84788 l -0.2062,-0.61695 0.1017,-0.20917 c 0.077,-0.15924 0.145,-0.22351 0.2836,-0.26923 0.1752,-0.0578 0.2067,-0.0479 0.843,0.26471 0.3636,0.17863 0.936,0.49022 1.2721,0.69242 0.3361,0.2022 1.3031,0.72114 2.1489,1.1532 1.6885,0.86251 2.1485,1.12981 2.8501,1.65617 0.2809,0.21072 0.4869,0.33369 0.5139,0.30671 0.027,-0.027 -0.01,-0.26067 -0.082,-0.58286 -0.2293,-0.97288 -0.2523,-1.16148 -0.2502,-2.0509 0,-0.64715 0.048,-1.29124 0.1817,-2.53008 0.099,-0.91405 0.2183,-2.12203 0.2656,-2.6844 l 0.086,-1.0225 -0.1577,-0.81305 c -0.2185,-1.12624 -0.3941,-2.24854 -0.8026,-5.12907 -0.1935,-1.36426 -0.4253,-2.84463 -0.5151,-3.28972 l -0.1633,-0.80925 0.1162,-1.15032 c 0.2828,-2.7988 0.6945,-4.87903 1.3125,-6.63215 0.2547,-0.72239 0.2546,-0.72219 0.4622,-1.91995 0.1811,-1.04522 0.3955,-1.99055 0.4679,-2.06289 0.057,-0.0566 0.5362,0.34908 1.0189,0.86169 0.4414,0.46867 0.8588,1.01749 1.4682,1.93052 0.5836,0.87422 0.9838,1.42215 1.54,2.1084 0.5168,0.63758 0.6745,0.80245 0.7222,0.75483 0.017,-0.0165 -0.3935,-0.71774 -0.9112,-1.55825 -1.5778,-2.56172 -2.1393,-3.55163 -2.9364,-5.17609 l -0.4997,-1.01858 0.2252,-1.11463 0.2253,-1.11462 0.078,-3.00137 0.078,-3.00137 0.7012,-1.82799 c 0.3857,-1.00539 0.7233,-1.82798 0.7503,-1.82799 0.027,0 0.092,0.10822 0.1449,0.24049 0.053,0.13227 0.2287,0.55303 0.391,0.93502 l 0.2952,0.69454 0.7098,4.39042 c 0.3904,2.41474 1.025,6.1987 1.4103,8.40879 l 0.7004,4.01836 1.8057,5.2586 c 1.1749,3.42153 2.0414,6.03848 2.4804,7.49101 0.8073,2.67127 1.0337,3.3611 1.056,3.21752 0.017,-0.10844 -0.068,-0.48636 -0.6771,-3.01908 -0.4232,-1.75936 -0.7008,-3.1152 -0.8986,-4.38918 -0.1714,-1.10368 -0.3151,-1.73754 -0.6017,-2.65535 -0.2073,-0.66388 -0.7932,-2.18417 -1.1077,-2.8743 -0.098,-0.21469 -0.1658,-0.40237 -0.1512,-0.41705 0.073,-0.0732 0.7805,0.31331 1.1427,0.62451 0.2829,0.24315 1.0535,1.67368 1.4398,2.67309 0.2619,0.67743 0.4217,1.2564 0.6145,2.22617 0.1639,0.82466 0.2989,1.28984 0.3743,1.28984 0.076,0 0.1156,-0.39945 0.152,-1.53789 l 0.033,-1.04179 -0.5978,-1.81075 c -0.7182,-2.17536 -1.0754,-3.34375 -1.3286,-4.34547 l -0.1893,-0.74879 0.2075,-0.64027 c 0.2127,-0.65653 0.5927,-1.48392 0.6812,-1.48327 0.068,5e-4 0.2778,0.39542 0.5431,1.02407 0.2154,0.51029 0.4614,1.29834 0.942,3.01728 0.2141,0.76543 0.2868,0.9498 0.35,0.88662 0.014,-0.0143 -0.073,-0.78299 -0.1937,-1.70822 -0.1208,-0.92522 -0.3037,-2.33127 -0.4063,-3.12454 l -0.1867,-1.44233 0.1662,-0.41803 c 0.1664,-0.41862 0.5011,-0.8397 0.6675,-0.8397 0.1333,0 0.4813,1.32474 0.7753,2.95176 0.195,1.07977 0.2663,1.35929 0.3301,1.2955 0.025,-0.0254 0.1235,-1.56427 0.2759,-4.32897 0.053,-0.96723 0.072,-1.11144 0.157,-1.20521 0.053,-0.0586 0.142,-0.1 0.1977,-0.0919 0.1403,0.0202 0.1687,0.21095 0.2138,1.43675 0.036,0.98538 0.062,1.15598 0.1577,1.055 0.024,-0.0255 0.3398,-1.1067 0.7012,-2.40275 0.3615,-1.29604 0.7189,-2.48038 0.7943,-2.63187 0.075,-0.15148 0.2325,-0.39615 0.3491,-0.54369 0.204,-0.25801 0.2133,-0.26359 0.2449,-0.14577 0.018,0.0674 0.048,0.39017 0.068,0.71733 0.019,0.32715 0.055,0.78458 0.079,1.0165 0.024,0.23193 0.081,0.92086 0.125,1.53097 0.044,0.61011 0.099,1.15705 0.1212,1.21543 0.04,0.10365 0.041,0.10323 0.069,-0.0179 0.016,-0.0682 0.052,-0.86072 0.081,-1.76113 0.143,-4.51562 0.1395,-4.45535 0.2807,-4.84901 0.1689,-0.47099 0.221,-0.57143 0.5795,-1.11729 0.166,-0.25281 0.3252,-0.4519 0.3538,-0.44241 0.029,0.01 0.088,0.39645 0.1334,0.88133 0.2496,2.64854 0.3903,4.29199 0.4392,5.1305 0.1038,1.77979 0.4854,4.13744 0.6603,4.07961 0.074,-0.0244 0.1076,-0.35201 0.1855,-1.79758 0.067,-1.23699 0.043,-4.21772 -0.059,-7.24297 -0.031,-0.92769 -0.058,-1.76485 -0.06,-1.86035 0,-0.13756 0.1597,-0.77222 0.2876,-1.12569 0.047,-0.1312 2.8203,0.92634 4.3019,1.9274 l 1.0082,0.68122 -0.015,3.64413 c -0.01,1.83224 -0.043,5.43984 -0.077,8.01689 -0.06,4.45594 -0.055,5.16772 0.033,4.94435 0.02,-0.0514 0.2699,-1.9186 0.555,-4.14924 0.5751,-4.49881 0.5702,-4.46367 0.6169,-4.46367 0.112,0 0.5866,0.63321 1.1669,1.55672 0.1008,0.16043 0.2016,0.27205 0.224,0.24805 0.022,-0.024 -0.047,-0.51244 -0.1533,-1.08543 -0.3673,-1.97111 -0.5163,-3.54984 -0.3908,-4.14111 0.082,-0.38529 0.1787,-0.45034 0.3971,-0.26654 0.2476,0.20834 0.8861,1.02443 1.3815,1.76595 0.2507,0.37517 0.4778,0.68213 0.5046,0.68213 0.03,0 0.049,-0.40016 0.049,-1.06301 0,-1.16915 0.057,-1.73546 0.2035,-2.0226 0.053,-0.10374 0.1057,-0.18861 0.1173,-0.18861 0.012,0 0.3404,0.24965 0.7307,0.55478 0.3903,0.30513 1.0985,0.64689 1.4422,0.93727 1.037,0.87631 1.2058,1.03682 1.1835,1.1167 -0.011,0.0409 -0.1833,0.53524 -0.3464,1.01273 -0.4477,1.31137 -0.6583,2.13722 -1.1957,4.68809 -0.8574,4.07054 -1.3473,6.66066 -1.7826,9.42578 -0.3695,2.34749 -0.4418,2.96994 -0.4751,4.09277 -0.061,2.04814 -0.3552,4.99677 -0.7282,7.29258 -0.1087,0.66951 -0.1095,0.59154 0.032,3.00137 0.1992,3.39711 0.1993,5.79139 5e-4,7.99068 -0.4263,4.71288 -0.779,7.19474 -1.632,11.48356 -0.8493,4.27014 -1.4377,6.58507 -2.2839,8.9843 l -0.2958,0.97588 z m -56.4825,0.43643 c 0,-0.0103 0.039,-0.0494 0.087,-0.0868 0.079,-0.0617 0.08,-0.0599 0.019,0.0187 -0.065,0.0826 -0.1055,0.10891 -0.1055,0.0681 z m 0.8433,-0.99219 c 0,-0.0103 0.039,-0.0494 0.087,-0.0868 0.079,-0.0617 0.08,-0.06 0.019,0.0187 -0.065,0.0826 -0.1056,0.10892 -0.1056,0.0681 z m 0.645,-0.74414 c 0,-0.0103 0.039,-0.0494 0.087,-0.0868 0.079,-0.0617 0.08,-0.06 0.019,0.0187 -0.065,0.0826 -0.1055,0.10891 -0.1055,0.0681 z m 0.3472,-0.39687 c 0,-0.0103 0.039,-0.0494 0.087,-0.0868 0.079,-0.0617 0.08,-0.0599 0.019,0.0187 -0.065,0.0826 -0.1056,0.10892 -0.1056,0.0681 z m 0.3473,-0.39688 c 0,-0.0103 0.039,-0.0494 0.087,-0.0868 0.079,-0.0617 0.081,-0.06 0.019,0.0187 -0.065,0.0826 -0.1055,0.10891 -0.1055,0.0681 z m 0.3969,-0.44648 c 0,-0.0103 0.039,-0.0494 0.087,-0.0868 0.079,-0.0617 0.08,-0.06 0.019,0.0187 -0.065,0.0826 -0.1055,0.10892 -0.1055,0.0681 z m 0.5705,-0.62619 c 0.049,-0.0546 0.1009,-0.0992 0.1146,-0.0992 0.014,0 -0.016,0.0447 -0.065,0.0992 -0.049,0.0546 -0.101,0.0992 -0.1146,0.0992 -0.014,0 0.016,-0.0447 0.065,-0.0992 z"
         id="path10928"
         sodipodi:nodetypes="csssssssssscscssssssscssssscsscsssssssssssssssccssssssccsscssscsssssssssscccccsssscsscssssssssssssscsscssssssscssssssssssssscsscscssscssssccscccssssscssssssssscssssssssscccsccccsccccsccccsccccsscccscccsssss" />
      <path
         style="display:inline;fill:#6c5d53;stroke-width:1"
         d="m -2034.4234,-493.61804 c -0.017,-0.028 -0.044,-0.16922 -0.059,-0.31385 -0.023,-0.2259 -0.01,-0.29218 0.1036,-0.47003 0.1908,-0.30216 0.3674,-0.72013 0.5067,-1.19878 0.2269,-0.77992 0.3351,-2.25825 0.216,-2.95219 -0.028,-0.16371 -0.058,-0.89393 -0.067,-1.62272 -0.016,-1.31705 -0.017,-1.32667 -0.1476,-1.59351 -0.2892,-0.59116 -0.763,-0.94529 -1.3459,-1.00595 -0.26,-0.0271 -0.3647,-0.008 -0.825,0.14913 -0.6347,0.21687 -1.2507,0.28901 -1.9032,0.22287 -0.2455,-0.0249 -0.4897,-0.059 -0.5427,-0.0758 -0.1337,-0.0424 -1.253,-0.74 -2.0867,-1.30042 -0.826,-0.55522 -1.3602,-0.92382 -1.9716,-1.38268 -1.263,-0.94783 -1.2845,-1.54137 -1.2836,-2.33527 0.01,-1.51393 0.5923,-2.79822 1.8403,-4.18035 0.4692,-0.5196 1.2739,-1.28468 1.7789,-1.68382 0.5051,-0.39913 1.0455,-0.81132 1.0455,-0.81132 v -1.16205 c 0.029,-1.19274 0.1436,-1.7305 0.3885,-2.85328 0.3963,-1.44487 0.529,-3.2657 1.9742,-3.74327 0.7113,-0.22595 1.7684,-0.25963 2.8036,0.20975 0.5754,0.26092 1.9087,1.32964 2.7096,2.29477 0.7654,0.94171 1.3282,1.72262 1.9019,3.0338 0.1125,0.26229 0.4027,0.88989 0.6447,1.39467 0.2421,0.50477 0.5279,1.14102 0.6352,1.41387 0.5948,1.51256 1.0412,3.34947 1.296,5.333 0.1881,1.46374 0.2115,1.93928 0.1525,3.09734 -0.1288,2.52816 -0.3548,3.51565 -1.1949,5.22048 -0.7573,1.53672 -2.0453,3.23763 -3.7564,4.96066 -0.6589,0.66344 -1.4091,1.09696 -2.2522,1.30148 -0.4942,0.1199 -0.5199,0.12234 -0.5625,0.0535 z m 8.7292,-99.02228 c -0.018,-0.0291 -0.022,-0.0636 -0.01,-0.0765 0.013,-0.013 0.037,0.0108 0.053,0.0529 0.034,0.0874 0,0.10279 -0.044,0.0236 z m -9.9446,-6.14826 c 0,-0.0273 0.024,-0.0496 0.053,-0.0496 0.029,0 0.039,0.0223 0.022,0.0496 -0.017,0.0273 -0.04,0.0496 -0.052,0.0496 -0.012,0 -0.022,-0.0223 -0.022,-0.0496 z"
         id="path10930"
         sodipodi:nodetypes="sccsssssssssscszccccsccsssssssssccccccssscc" />
      <path
         style="display:inline;fill:#fe835e;stroke-width:1"
         d="m -2080.8823,-493.09321 c -1.6211,-0.21092 -2.962,-0.74679 -4.3838,-1.67897 -2.1376,-1.40136 -3.3444,-3.40598 -3.7596,-6.17067 -0.1225,-0.81555 -0.1252,-2.56081 -0.029,-3.38537 0.2645,-2.24547 0.8418,-4.32603 1.8216,-6.29863 2.059,-4.14529 5.0268,-6.71568 8.492,-7.36229 0.6176,-0.11525 2.3661,-0.13071 2.9517,-0.0261 1.5818,0.28261 3.1984,0.96972 4.5859,1.89424 0.8797,0.58613 1.39,1.00314 1.909,1.55985 1.2314,1.32079 1.9973,2.95219 2.333,4.92115 0.1241,0.72812 0.1523,2.44725 0.054,3.29111 -0.3621,3.10856 -1.673,6.1971 -3.6969,8.64636 -0.4916,0.59497 -1.6896,1.76977 -2.2463,2.20194 -1.625,1.2613 -3.3434,2.01671 -5.1973,2.34494 -0.7262,0.12857 -2.1411,0.15276 -2.8352,0.0624 z"
         id="path10932"
         sodipodi:nodetypes="csscsssssssssscc" />
    </g>
    <g
       id="g1224"
       transform="translate(2175.7821,680.58392)"
       inkscape:export-filename="C:\Portfolio\public\images\uccello-new.png"
       inkscape:export-xdpi="115.2"
       inkscape:export-ydpi="115.2">
      <path
         id="path2366-7"
         style="display:inline;fill:#ffe680;stroke-width:4.99999;stroke-linecap:round;stroke-linejoin:round"
         d="m -2051.5206,-547.59344 c -1.7909,0.0119 -4.2195,0.19476 -6.9184,0.52763 -1.2742,0.15714 -1.5816,0.21341 -2.6903,0.49506 -3.2481,0.82513 -6.8285,1.9585 -9.8495,3.11764 -2.6926,1.03309 -3.8445,1.5566 -5.1459,2.33783 -1.3638,0.82603 -2.7044,1.90693 -4.0143,2.9962 -0.7214,0.57824 -0.9284,0.74617 -1.5735,1.27537 -0.1946,0.15967 -0.752,0.61362 -1.2387,1.00925 -1.0168,0.82651 -1.2026,1.00624 -2.1528,2.08359 -0.2046,0.23191 -0.3845,0.43289 -0.4005,0.44649 -0.1123,0.098 -3.1111,3.64709 -3.822,4.52324 -1.4331,1.76596 -2.2398,2.80651 -3.6468,4.7041 -0.8309,1.12051 -1.4125,1.98242 -2.3761,3.52227 -0.7651,1.22269 -2.4971,3.8114 -3.7274,5.57019 -1.052,1.5036 -3.7704,5.31323 -4.2556,5.96397 -0.171,0.22929 -2.424,3.7782 -3.0939,4.8731 -0.063,0.10298 -0.175,0.28199 -0.248,0.39791 -1.5513,2.4489 -2.9267,4.70164 -3.6566,5.99032 -0.8322,1.46929 -1.0259,1.83282 -1.7183,3.22461 -1.607,3.2298 -2.4989,5.5412 -3.3197,8.60208 -0.235,0.87649 -0.7172,2.92787 -0.7829,3.47679 l -0.028,0.23458 c 6.9179,6.34444 15.4736,11.27551 22.9578,13.95523 0.6137,-0.63201 1.3757,-1.26336 2.2257,-1.90426 1.1699,1.08614 2.1303,2.30419 2.8024,3.55223 2.9256,0.89555 5.7428,1.52885 8.9851,1.99677 0.7698,-1.08981 3.765,-5.13799 4.7547,-5.75106 0.056,1.222 1.0641,4.72528 1.8253,6.45367 1.4359,0.10405 2.892,0.13187 4.3428,0.14178 1.0532,-0.016 2.0884,-0.0144 3.1399,-0.0769 1.7,-1.79932 4.15,-4.04174 6.1174,-6.93144 0.4907,1.12188 1.3768,4.17719 1.836,6.12624 3.085,-0.36094 4.9647,-0.83815 7.1815,-1.5018 0.3474,-0.97888 0.6559,-1.93911 1.1751,-3.05194 0.6712,0.30363 1.8946,1.15931 2.7874,1.87895 1.672,-0.52251 3.337,-1.15908 4.9874,-1.84019 0.038,-0.10929 0.081,-0.25702 0.084,-0.36743 0.066,-3.94041 -1.8774,-8.60817 -5.1005,-13.01263 -0.463,-0.69384 -1.0055,-1.47378 -2.298,-3.30576 -0.1179,-0.16751 -0.2145,-0.32676 -0.2145,-0.35396 0,-0.0272 0.6524,-0.62701 1.45,-1.33276 1.8018,-1.59409 2.561,-2.292 3.391,-3.11764 1.1527,-1.14651 2.3543,-2.54037 2.6526,-3.07681 0.2942,-0.5289 0.6908,-1.12649 1.1782,-1.77559 0.3828,-0.50983 0.528,-0.66424 0.739,-0.78497 0.1445,-0.0827 0.2661,-0.17063 0.2661,-0.18912 -0.4648,0.0284 -0.6825,0.0343 -1.11,-0.15142 -1.1007,-0.45823 -1.8894,-1.35628 -2.3564,-2.68356 -0.3943,-1.12067 -0.5402,-2.21674 -0.6052,-4.55425 l -0.048,-1.70532 -0.2295,-0.27853 c -0.2608,-0.31686 -0.4217,-0.61809 -0.5157,-0.9648 -0.098,-0.36073 -0.037,-1.32604 0.122,-1.94408 0.1641,-0.63704 0.6127,-1.54651 1.0526,-2.1332 0.4571,-0.60963 1.5531,-1.69259 2.5828,-2.55231 l 0.8558,-0.71466 v -0.57931 c 0,-1.58046 0.2543,-3.18846 0.77,-4.8705 0.2487,-0.81164 0.6076,-1.52315 0.6976,-1.6278 0.043,-0.0498 0.2123,-0.16512 0.3767,-0.25632 0.9263,-0.51369 2.0022,-0.71938 3.1094,-0.28216 0.6471,0.25559 1.9922,1.37232 3.0153,2.48979 0.145,0.15843 0.2685,0.36129 0.2785,0.35086 0.046,-0.0458 0.085,-1.33313 0.1054,-4.85603 0.021,-3.74187 0,-4.52697 -0.1415,-6.46213 -0.042,-0.55298 -0.076,-1.14948 -0.076,-1.32551 0,-1.03775 -0.7602,-5.04201 -1.1255,-5.92934 -0.4614,-1.12024 -1.135,-2.24102 -1.9162,-3.18844 -0.831,-1.0078 -2.1809,-2.22811 -3.4866,-3.15227 -1.3249,-0.93766 -3.5291,-2.12087 -4.4354,-2.38072 -2.0647,-0.59201 -4.978,-1.06953 -7.9623,-1.30482 -0.4417,-0.0349 -0.9678,-0.0499 -1.5648,-0.046 z m -25.7483,29.53258 v 0 c 2.2435,-0.0193 4.5571,0.79063 6.7288,2.42207 2.1329,1.60232 3.3605,3.86808 3.6375,6.7138 0.2752,2.82851 -0.5445,6.20163 -2.1854,8.99015 -2.2205,3.77372 -5.5915,6.26673 -9.172,6.78407 -0.5337,0.0772 -1.7235,0.13587 -2.034,0.10026 -0.096,-0.0111 -0.3834,-0.0445 -0.6398,-0.0744 -0.6043,-0.0704 -1.5173,-0.29485 -2.1265,-0.52247 -1.1021,-0.41169 -2.3886,-1.17303 -3.2385,-1.91614 -1.5335,-1.34098 -2.511,-3.38568 -2.7735,-5.80276 -0.075,-0.69781 -0.064,-2.24425 0.023,-2.99103 0.5463,-4.70969 2.939,-9.26577 6.151,-11.71142 1.7242,-1.31283 3.6491,-1.97508 5.6286,-1.99212 z"
         sodipodi:nodetypes="ssssccssscsssssscsssscccccccccccccccccsssssssccsccssssscsssssscccsssssssscsssssssssccssc" />
      <path
         style="display:inline;fill:#d18b5d;stroke-width:1"
         d="m -2042.3344,-499.16356 c -0.4388,-1.26648 -0.6095,-2.39517 -0.664,-4.88566 l -0.034,-1.53606 0.5635,0.34601 c 0.6641,0.4078 1.1206,0.90163 1.9511,1.4599 0.8337,0.56042 1.9119,1.14498 2.0456,1.18742 0.053,0.0168 0.2972,0.051 0.5427,0.0758 0.6525,0.0661 1.2685,-0.006 1.9032,-0.22287 0.4603,-0.15725 0.565,-0.17619 0.825,-0.14913 0.5831,0.0607 1.1461,0.52778 1.4356,1.11956 0.1308,0.26737 0.073,0.27707 0.086,1.5439 0.01,0.70116 0.023,1.3753 0.036,1.49808 0.013,0.12279 0.014,0.17491 0,0.11582 -0.036,-0.18344 -0.1892,-0.16575 -0.5683,0.0894 -1.5779,0.96169 -3.0666,1.73291 -4.707,2.03403 -1.6662,0.23229 -2.6676,-0.93185 -3.4152,-2.67624 z"
         id="path1244"
         sodipodi:nodetypes="cccssssssscsccccc" />
      <path
         style="display:inline;fill:#e0c65d;stroke-width:1"
         d="m -2031.0511,-531.47721 c -0.097,-1.64865 -0.9467,-5.06253 -1.3363,-6.00859 -0.4614,-1.12024 -1.1119,-2.22969 -1.8931,-3.17711 -0.831,-1.0078 -2.0753,-2.2398 -3.381,-3.16395 -1.3249,-0.93768 -3.4591,-2.09746 -4.3654,-2.35732 -2.0647,-0.59201 -4.8377,-1.03431 -7.822,-1.26962 -1.7668,-0.13932 -4.756,0.0259 -8.3545,0.46976 -1.2742,0.15715 -2.9499,0.57628 -4.0586,0.85793 -3.2481,0.82513 -5.6008,1.64266 -8.6218,2.80179 -2.6926,1.03311 -3.891,1.53292 -5.1925,2.31415 -1.1299,0.6783 -2.6384,1.66425 -2.8993,1.95669 l -0.124,0.13902 -0.025,-0.23545 c -0.01,-0.0994 -0.084,-0.44328 -0.1847,-0.76298 -0.3268,-1.04161 -0.3481,-1.76959 -0.072,-2.46267 0.2207,-0.55393 0.9182,-0.89666 2.1812,-1.07184 0.1309,-0.0181 0.2356,-0.0589 0.2355,-0.0916 0,-0.0324 -0.056,-0.1688 -0.124,-0.30303 -0.1454,-0.28653 -0.1508,-0.40414 -0.045,-0.9815 0.072,-0.3914 0.095,-0.44384 0.2479,-0.56042 0.285,-0.21739 0.9082,-0.48642 1.5582,-0.67261 0.3936,-0.11278 0.6247,-0.20355 0.6328,-0.24859 0.01,-0.0401 -0.1085,-0.14636 -0.2664,-0.24458 -0.4903,-0.30492 -0.7622,-0.74026 -0.8369,-1.33994 -0.034,-0.27304 -0.034,-0.27358 0.181,-0.48708 0.4301,-0.42744 1.1038,-0.75267 1.5591,-0.75267 0.1506,0 0.7898,0.0357 1.4204,0.0794 l 1.1466,0.0794 1.5916,0.60791 c 1.8152,0.69334 2.2535,0.84507 2.3016,0.79675 0.044,-0.044 0,-0.0767 -1.3741,-1.08548 -1.3412,-0.98282 -2.0165,-1.54859 -2.7034,-2.26481 -0.5639,-0.58809 -0.6646,-0.77356 -0.8773,-1.61577 -0.2565,-1.0154 -0.3952,-2.6498 -0.225,-2.6498 0.038,0 0.4457,0.10042 0.9054,0.22315 1.1764,0.31409 1.2772,0.29522 0.7697,-0.1442 -0.2916,-0.25253 -1.6065,-1.43897 -1.7332,-1.56387 -0.1023,-0.10087 -0.059,-2.61841 0.055,-3.21794 0.1263,-0.66227 0.2348,-1.00222 0.3198,-1.00222 0.2378,0 2.2735,0.66444 3.166,1.0334 0.7353,0.30393 3.3795,1.91959 5.9479,3.63422 1.6025,1.06984 1.787,1.20959 3.6959,2.7997 2.0404,1.69971 2.2176,1.84093 2.2585,1.80006 0.045,-0.0446 -0.2693,-0.39955 -2.369,-2.67851 -2.0741,-2.25134 -2.1383,-2.3272 -2.996,-3.53939 -0.9601,-1.35703 -1.221,-1.83325 -1.5599,-2.84788 l -0.2062,-0.61695 0.1017,-0.20917 c 0.077,-0.15924 0.145,-0.22351 0.2836,-0.26923 0.1752,-0.0578 0.2067,-0.0479 0.843,0.26471 0.3636,0.17863 0.936,0.49022 1.2721,0.69242 0.3361,0.2022 1.3031,0.72114 2.1489,1.1532 1.6885,0.86251 2.1485,1.12981 2.8501,1.65617 0.2809,0.21072 0.4869,0.33369 0.5139,0.30671 0.027,-0.027 -0.01,-0.26067 -0.082,-0.58286 -0.2293,-0.97288 -0.2523,-1.16148 -0.2502,-2.0509 0,-0.64715 0.048,-1.29124 0.1817,-2.53008 0.099,-0.91405 0.2183,-2.12203 0.2656,-2.6844 l 0.086,-1.0225 -0.1577,-0.81305 c -0.2185,-1.12624 -0.3941,-2.24854 -0.8026,-5.12907 -0.1935,-1.36426 -0.4253,-2.84463 -0.5151,-3.28972 l -0.1633,-0.80925 0.1162,-1.15032 c 0.2828,-2.7988 0.6945,-4.87903 1.3125,-6.63215 0.2547,-0.72239 0.2546,-0.72219 0.4622,-1.91995 0.1811,-1.04522 0.3955,-1.99055 0.4679,-2.06289 0.057,-0.0566 0.5362,0.34908 1.0189,0.86169 0.4414,0.46867 0.8588,1.01749 1.4682,1.93052 0.5836,0.87422 0.9838,1.42215 1.54,2.1084 0.5168,0.63758 0.6745,0.80245 0.7222,0.75483 0.017,-0.0165 -0.3935,-0.71774 -0.9112,-1.55825 -1.5778,-2.56172 -2.1393,-3.55163 -2.9364,-5.17609 l -0.4997,-1.01858 0.2252,-1.11463 0.2253,-1.11462 0.078,-3.00137 0.078,-3.00137 0.7012,-1.82799 c 0.3857,-1.00539 0.7233,-1.82798 0.7503,-1.82799 0.027,0 0.092,0.10822 0.1449,0.24049 0.053,0.13227 0.2287,0.55303 0.391,0.93502 l 0.2952,0.69454 0.7098,4.39042 c 0.3904,2.41474 1.025,6.1987 1.4103,8.40879 l 0.7004,4.01836 1.8057,5.2586 c 1.1749,3.42153 2.0414,6.03848 2.4804,7.49101 0.8073,2.67127 1.0337,3.3611 1.056,3.21752 0.017,-0.10844 -0.068,-0.48636 -0.6771,-3.01908 -0.4232,-1.75936 -0.7008,-3.1152 -0.8986,-4.38918 -0.1714,-1.10368 -0.3151,-1.73754 -0.6017,-2.65535 -0.2073,-0.66388 -0.7932,-2.18417 -1.1077,-2.8743 -0.098,-0.21469 -0.1658,-0.40237 -0.1512,-0.41705 0.073,-0.0732 0.7805,0.31331 1.1427,0.62451 0.2829,0.24315 1.0535,1.67368 1.4398,2.67309 0.2619,0.67743 0.4217,1.2564 0.6145,2.22617 0.1639,0.82466 0.2989,1.28984 0.3743,1.28984 0.076,0 0.1156,-0.39945 0.152,-1.53789 l 0.033,-1.04179 -0.5978,-1.81075 c -0.7182,-2.17536 -1.0754,-3.34375 -1.3286,-4.34547 l -0.1893,-0.74879 0.2075,-0.64027 c 0.2127,-0.65653 0.5927,-1.48392 0.6812,-1.48327 0.068,5e-4 0.2778,0.39542 0.5431,1.02407 0.2154,0.51029 0.4614,1.29834 0.942,3.01728 0.2141,0.76543 0.2868,0.9498 0.35,0.88662 0.014,-0.0143 -0.073,-0.78299 -0.1937,-1.70822 -0.1208,-0.92522 -0.3037,-2.33127 -0.4063,-3.12454 l -0.1867,-1.44233 0.1662,-0.41803 c 0.1664,-0.41862 0.5011,-0.8397 0.6675,-0.8397 0.1333,0 0.4813,1.32474 0.7753,2.95176 0.195,1.07977 0.2663,1.35929 0.3301,1.2955 0.025,-0.0254 0.1235,-1.56427 0.2759,-4.32897 0.053,-0.96723 0.072,-1.11144 0.157,-1.20521 0.053,-0.0586 0.142,-0.1 0.1977,-0.0919 0.1403,0.0202 0.1687,0.21095 0.2138,1.43675 0.036,0.98538 0.062,1.15598 0.1577,1.055 0.024,-0.0255 0.3398,-1.1067 0.7012,-2.40275 0.3615,-1.29604 0.7189,-2.48038 0.7943,-2.63187 0.075,-0.15148 0.2325,-0.39615 0.3491,-0.54369 0.204,-0.25801 0.2133,-0.26359 0.2449,-0.14577 0.018,0.0674 0.048,0.39017 0.068,0.71733 0.019,0.32715 0.055,0.78458 0.079,1.0165 0.024,0.23193 0.081,0.92086 0.125,1.53097 0.044,0.61011 0.099,1.15705 0.1212,1.21543 0.04,0.10365 0.041,0.10323 0.069,-0.0179 0.016,-0.0682 0.052,-0.86072 0.081,-1.76113 0.143,-4.51562 0.1395,-4.45535 0.2807,-4.84901 0.1689,-0.47099 0.221,-0.57143 0.5795,-1.11729 0.166,-0.25281 0.3252,-0.4519 0.3538,-0.44241 0.029,0.01 0.088,0.39645 0.1334,0.88133 0.2496,2.64854 0.3903,4.29199 0.4392,5.1305 0.1038,1.77979 0.4854,4.13744 0.6603,4.07961 0.074,-0.0244 0.1076,-0.35201 0.1855,-1.79758 0.067,-1.23699 0.043,-4.21772 -0.059,-7.24297 -0.031,-0.92769 -0.058,-1.76485 -0.06,-1.86035 0,-0.13756 0.1597,-0.78976 0.2876,-1.14323 0.047,-0.1312 2.1581,1.0179 4.2931,2.31912 l 1.017,0.61983 -0.015,3.33134 c -0.01,1.83224 -0.043,5.43984 -0.077,8.01689 -0.06,4.45594 -0.055,5.16772 0.033,4.94435 0.02,-0.0514 0.2699,-1.9186 0.555,-4.14924 0.5751,-4.49881 0.5702,-4.46367 0.6169,-4.46367 0.112,0 0.5866,0.63321 1.1669,1.55672 0.1008,0.16043 0.2016,0.27205 0.224,0.24805 0.022,-0.024 -0.047,-0.51244 -0.1533,-1.08543 -0.3673,-1.97111 -0.5163,-3.54984 -0.3908,-4.14111 0.082,-0.38529 0.1787,-0.45034 0.3971,-0.26654 0.2476,0.20834 0.8861,1.02443 1.3815,1.76595 0.2507,0.37517 0.4778,0.68213 0.5046,0.68213 0.03,0 0.049,-0.40016 0.049,-1.06301 0,-1.16915 0.057,-1.73546 0.2035,-2.0226 0.053,-0.10374 0.1057,-0.18861 0.1173,-0.18861 0.012,0 0.3404,0.24965 0.7307,0.55478 0.3903,0.30513 1.0011,0.77952 1.3574,1.0542 1.0721,0.82661 1.2614,0.99005 1.2391,1.06993 -0.011,0.0409 -0.1541,0.46508 -0.3172,0.94257 -0.4477,1.31137 -0.6583,2.13722 -1.1957,4.68809 -0.8574,4.07054 -1.3473,6.66066 -1.7826,9.42578 -0.3695,2.34749 -0.4418,2.96994 -0.4751,4.09277 -0.061,2.04814 -0.3552,4.99677 -0.7282,7.29258 -0.1087,0.66951 -0.1095,0.59154 0.032,3.00137 0.1992,3.39711 0.1993,5.79139 5e-4,7.99068 -0.4263,4.71288 -0.779,7.19474 -1.632,11.48356 -0.8493,4.27014 -1.4377,6.58507 -2.2839,8.9843 l -0.2958,0.97588 z m -56.4825,0.43643 c 0,-0.0103 0.039,-0.0494 0.087,-0.0868 0.079,-0.0617 0.08,-0.0599 0.019,0.0187 -0.065,0.0826 -0.1055,0.10891 -0.1055,0.0681 z m 0.8433,-0.99219 c 0,-0.0103 0.039,-0.0494 0.087,-0.0868 0.079,-0.0617 0.08,-0.06 0.019,0.0187 -0.065,0.0826 -0.1056,0.10892 -0.1056,0.0681 z m 0.645,-0.74414 c 0,-0.0103 0.039,-0.0494 0.087,-0.0868 0.079,-0.0617 0.08,-0.06 0.019,0.0187 -0.065,0.0826 -0.1055,0.10891 -0.1055,0.0681 z m 0.3472,-0.39687 c 0,-0.0103 0.039,-0.0494 0.087,-0.0868 0.079,-0.0617 0.08,-0.0599 0.019,0.0187 -0.065,0.0826 -0.1056,0.10892 -0.1056,0.0681 z m 0.3473,-0.39688 c 0,-0.0103 0.039,-0.0494 0.087,-0.0868 0.079,-0.0617 0.081,-0.06 0.019,0.0187 -0.065,0.0826 -0.1055,0.10891 -0.1055,0.0681 z m 0.3969,-0.44648 c 0,-0.0103 0.039,-0.0494 0.087,-0.0868 0.079,-0.0617 0.08,-0.06 0.019,0.0187 -0.065,0.0826 -0.1055,0.10892 -0.1055,0.0681 z m 0.5705,-0.62619 c 0.049,-0.0546 0.1009,-0.0992 0.1146,-0.0992 0.014,0 -0.016,0.0447 -0.065,0.0992 -0.049,0.0546 -0.101,0.0992 -0.1146,0.0992 -0.014,0 0.016,-0.0447 0.065,-0.0992 z"
         id="path1250"
         sodipodi:nodetypes="csssssssssscscssssssscssssscsscsssssssssssssssccssssssccsscssscsssssssssscccccsssscsscssssssssssssscsscssssssscssssssssssssscsscscssscssssccscccssssscssssssssscssssssssscccsccccsccccsccccsccccsscccscccsssss" />
      <path
         style="display:inline;fill:#dca986;stroke-width:1"
         d="m -2034.4234,-493.61804 c -0.017,-0.028 -0.044,-0.16922 -0.059,-0.31385 -0.023,-0.2259 -0.01,-0.29218 0.1036,-0.47003 0.1908,-0.30216 0.3674,-0.72013 0.5067,-1.19878 0.2269,-0.77992 0.3351,-2.25825 0.216,-2.95219 -0.028,-0.16371 -0.058,-0.89393 -0.067,-1.62272 -0.016,-1.31705 -0.017,-1.32667 -0.1476,-1.59351 -0.2892,-0.59116 -0.763,-0.94529 -1.3459,-1.00595 -0.26,-0.0271 -0.3647,-0.008 -0.825,0.14913 -0.6347,0.21687 -1.2507,0.28901 -1.9032,0.22287 -0.2455,-0.0249 -0.4897,-0.059 -0.5427,-0.0758 -0.1337,-0.0424 -1.253,-0.74 -2.0867,-1.30042 -0.826,-0.55522 -1.3602,-0.92382 -1.9716,-1.38268 -1.263,-0.94783 -1.2845,-1.54137 -1.2836,-2.33527 0.01,-1.51393 0.5923,-2.79822 1.8403,-4.18035 0.4692,-0.5196 1.2739,-1.28468 1.7789,-1.68382 0.5051,-0.39913 1.0455,-0.81132 1.0455,-0.81132 v -1.16205 c 0.029,-1.19274 0.1436,-1.7305 0.3885,-2.85328 0.3963,-1.44487 0.529,-3.2657 1.9742,-3.74327 0.7113,-0.22595 1.7684,-0.25963 2.8036,0.20975 0.5754,0.26092 1.9087,1.32964 2.7096,2.29477 0.7654,0.94171 1.3282,1.72262 1.9019,3.0338 0.1125,0.26229 0.4027,0.88989 0.6447,1.39467 0.2421,0.50477 0.5279,1.14102 0.6352,1.41387 0.5948,1.51256 1.0412,3.34947 1.296,5.333 0.1881,1.46374 0.2115,1.93928 0.1525,3.09734 -0.1288,2.52816 -0.3548,3.51565 -1.1949,5.22048 -0.7573,1.53672 -2.0453,3.23763 -3.7564,4.96066 -0.6589,0.66344 -1.4091,1.09696 -2.2522,1.30148 -0.4942,0.1199 -0.5199,0.12234 -0.5625,0.0535 z"
         id="path1252"
         sodipodi:nodetypes="sccsssssssssscszccccsccsssssssss" />
      <path
         style="display:inline;fill:#fe835e;stroke-width:1"
         d="m -2080.8823,-493.09321 c -1.6211,-0.21092 -2.962,-0.74679 -4.3838,-1.67897 -2.1376,-1.40136 -3.3444,-3.40598 -3.7596,-6.17067 -0.1225,-0.81555 -0.1252,-2.56081 -0.029,-3.38537 0.2645,-2.24547 0.8418,-4.32603 1.8216,-6.29863 2.059,-4.14529 5.0268,-6.71568 8.492,-7.36229 0.6176,-0.11525 2.3661,-0.13071 2.9517,-0.0261 1.5818,0.28261 3.1984,0.96972 4.5859,1.89424 0.8797,0.58613 1.39,1.00314 1.909,1.55985 1.2314,1.32079 1.9973,2.95219 2.333,4.92115 0.1241,0.72812 0.1523,2.44725 0.054,3.29111 -0.3621,3.10856 -1.673,6.1971 -3.6969,8.64636 -0.4916,0.59497 -1.6896,1.76977 -2.2463,2.20194 -1.625,1.2613 -3.3434,2.01671 -5.1973,2.34494 -0.7262,0.12857 -2.1411,0.15276 -2.8352,0.0624 z"
         id="path1248"
         sodipodi:nodetypes="csscsssssssssscc" />
    </g>
  </g>
</svg>
